<?xml version="1.0" standalone="no"?>
<!DOCTYPE svg PUBLIC "-//W3C//DTD SVG 20010904//EN"
 "http://www.w3.org/TR/2001/REC-SVG-20010904/DTD/svg10.dtd">
<svg version="1.0" xmlns="http://www.w3.org/2000/svg"
 width="1066.000000pt" height="638.000000pt" viewBox="0 0 1066.000000 638.000000"
 preserveAspectRatio="xMidYMid meet">

<g transform="translate(0.000000,638.000000) scale(0.100000,-0.100000)"
fill="#000000" stroke="none">
<path d="M5455 5533 c-45 -23 -104 -83 -127 -127 -11 -22 -63 -179 -115 -350
-269 -885 -293 -969 -293 -1017 0 -46 2 -50 38 -73 21 -13 51 -39 66 -56 l27
-32 -6 -447 c-3 -245 -8 -476 -10 -513 l-5 -68 221 0 222 0 -7 503 c-5 355 -4
523 4 572 21 131 84 235 176 287 l54 30 0 56 c0 77 -32 268 -82 489 -48 216
-47 222 41 282 68 47 86 66 106 114 19 47 19 151 0 208 -21 60 -69 117 -119
140 -51 23 -149 24 -191 2z m165 -58 c60 -31 100 -111 100 -200 0 -66 -25
-105 -105 -161 -64 -45 -95 -91 -95 -140 0 -17 18 -112 40 -210 43 -189 80
-398 80 -450 0 -26 -8 -36 -49 -63 -79 -51 -131 -127 -168 -246 -17 -56 -18
-98 -15 -577 3 -464 2 -518 -12 -518 -14 0 -16 114 -16 1140 0 753 -3 1140
-10 1140 -7 0 -10 -387 -10 -1140 0 -753 -3 -1140 -10 -1140 -7 0 -10 357 -10
1050 0 927 -2 1050 -15 1050 -13 0 -15 -123 -15 -1050 0 -693 -3 -1050 -10
-1050 -7 0 -10 328 -10 965 0 637 -3 965 -10 965 -7 0 -10 -328 -10 -965 0
-633 -3 -965 -10 -965 -6 0 -11 304 -12 877 -2 690 -6 877 -15 881 -10 3 -13
-177 -13 -877 0 -581 -3 -881 -10 -881 -7 0 -10 272 -10 795 0 523 -3 795 -10
795 -7 0 -10 -272 -10 -795 0 -700 -2 -795 -15 -795 -13 0 -15 86 -15 710 0
467 -3 710 -10 710 -7 0 -10 -243 -10 -710 0 -655 -1 -710 -17 -710 -15 0 -16
37 -9 493 l6 494 -23 34 c-12 18 -42 47 -65 64 -40 28 -42 32 -38 70 3 22 46
175 96 340 50 165 134 442 187 615 93 309 114 363 151 407 51 59 140 80 202
48z"/>
<path d="M5151 5514 c-77 -64 -3 -182 90 -144 35 15 49 37 49 79 0 43 -9 60
-41 76 -40 21 -63 19 -98 -11z"/>
<path d="M5103 5300 c-47 -19 -57 -87 -18 -125 34 -35 86 -34 114 1 38 48 24
104 -30 123 -37 13 -37 13 -66 1z"/>
<path d="M5026 5059 c-34 -27 -35 -71 -1 -104 13 -14 36 -25 50 -25 14 0 37
11 50 25 14 13 25 36 25 50 0 33 -41 75 -73 75 -13 0 -36 -9 -51 -21z"/>
<path d="M4948 4844 c-95 -40 -56 -159 45 -140 83 16 117 91 61 135 -31 25
-55 26 -106 5z"/>
<path d="M4885 4615 c-56 -55 -4 -149 72 -130 60 15 81 80 42 129 -28 35 -80
36 -114 1z"/>
<path d="M4815 4405 c-17 -17 -25 -35 -25 -60 0 -48 13 -70 49 -85 62 -25 121
15 121 82 0 79 -90 119 -145 63z"/>
<path d="M656 2624 c-14 -13 -16 -52 -16 -267 l0 -252 36 -107 c50 -147 52
-148 172 -148 119 0 135 8 157 88 9 31 19 64 22 72 3 9 15 -17 29 -60 13 -41
31 -80 40 -87 12 -9 53 -13 119 -13 123 0 120 -2 172 135 l37 100 1 263 c0
250 -1 264 -19 278 -29 21 -229 20 -250 -2 -13 -12 -16 -41 -16 -145 l0 -129
-20 20 c-16 16 -33 20 -85 20 -52 0 -69 -4 -85 -20 l-20 -20 0 129 c0 104 -3
133 -16 145 -12 13 -39 16 -129 16 -90 0 -117 -3 -129 -16z m224 -234 c5 -180
6 -195 23 -195 13 0 30 22 55 70 36 69 38 70 77 70 39 0 41 -1 77 -70 25 -48
42 -70 55 -70 17 0 18 15 23 195 l5 195 88 3 88 3 -3 -253 -3 -253 -35 -90
-35 -90 -73 -3 c-80 -3 -96 4 -107 46 -27 112 -46 160 -67 165 -38 10 -52 -9
-84 -110 l-30 -98 -76 -3 c-55 -2 -78 1 -87 11 -6 8 -26 54 -43 103 -32 89
-32 90 -36 317 -2 126 -1 235 2 243 5 12 23 14 93 12 l88 -3 5 -195z"/>
<path d="M760 2336 c0 -290 22 -386 91 -386 39 0 50 15 99 127 51 118 56 125
89 121 21 -3 31 -17 67 -98 65 -147 68 -150 108 -150 45 0 59 20 80 117 12 53
16 125 16 272 l0 201 -30 0 -30 0 0 -207 c0 -187 -12 -309 -32 -329 -3 -2 -26
44 -52 103 -61 137 -66 143 -131 143 -65 0 -70 -6 -133 -144 -28 -59 -52 -104
-55 -99 -3 4 -12 43 -21 85 -11 54 -16 132 -16 263 l0 185 -25 0 -25 0 0 -204z"/>
<path d="M1697 2622 c-13 -15 -17 -39 -17 -110 0 -114 12 -132 90 -132 l50 0
0 -135 0 -135 -34 0 c-40 0 -87 -16 -98 -33 -4 -7 -8 -53 -8 -103 0 -132 -17
-124 288 -124 214 0 253 2 266 16 20 20 23 191 4 217 -8 11 -33 20 -65 24
l-53 6 0 133 0 134 45 0 c72 0 85 20 85 134 0 73 -4 98 -16 110 -13 14 -52 16
-268 16 -232 0 -254 -1 -269 -18z m501 -109 l3 -73 -71 0 -70 0 0 -195 0 -194
68 -3 67 -3 0 -70 0 -70 -227 -3 -228 -2 -5 23 c-4 13 -5 46 -3 73 l3 49 68 3
67 3 0 194 0 194 -67 3 -68 3 -3 49 c-2 27 -1 60 3 73 l5 23 228 -2 227 -3 3
-72z"/>
<path d="M1780 2515 c0 -25 1 -25 80 -25 l80 0 0 -245 0 -245 -80 0 c-79 0
-80 0 -80 -25 l0 -25 185 0 185 0 0 25 c0 25 -1 25 -80 25 l-80 0 0 245 0 245
80 0 c79 0 80 0 80 25 l0 25 -185 0 -185 0 0 -25z"/>
<path d="M2534 2626 c-18 -14 -19 -30 -19 -381 0 -351 1 -367 19 -381 16 -11
75 -14 311 -14 270 0 293 1 308 18 25 27 25 392 1 416 -23 23 -236 23 -255 0
-7 -9 -15 -51 -17 -100 l-5 -84 -33 0 -34 0 0 253 c0 233 -1 255 -18 270 -25
23 -228 25 -258 3z m224 -308 l2 -268 90 0 90 0 0 100 0 101 88 -3 87 -3 0
-170 0 -170 -272 -3 -273 -2 0 345 0 346 93 -3 92 -3 3 -267z"/>
<path d="M2640 2245 l0 -295 205 0 205 0 0 125 0 125 -25 0 -25 0 0 -100 0
-100 -155 0 -155 0 0 270 0 270 -25 0 -25 0 0 -295z"/>
<path d="M3446 2624 c-14 -13 -16 -62 -16 -379 0 -317 2 -366 16 -379 13 -14
55 -16 308 -16 271 0 294 1 309 18 25 27 25 392 1 416 -20 20 -233 23 -252 4
-8 -8 -12 -45 -12 -100 l0 -88 -40 0 -40 0 0 253 c0 233 -1 255 -18 270 -26
24 -233 25 -256 1z m222 -306 l2 -268 90 0 90 0 0 100 0 101 88 -3 87 -3 0
-170 0 -170 -272 -3 -273 -2 0 345 0 346 93 -3 92 -3 3 -267z"/>
<path d="M3550 2245 l0 -295 205 0 205 0 0 125 0 125 -25 0 -25 0 0 -100 0
-100 -155 0 -155 0 0 270 0 270 -25 0 -25 0 0 -295z"/>
<path d="M4337 2622 c-13 -15 -17 -39 -17 -110 0 -114 12 -132 90 -132 l50 0
0 -134 0 -133 -57 -6 c-76 -8 -83 -19 -83 -132 0 -133 -17 -125 287 -125 301
0 283 -8 283 126 0 49 -4 94 -8 101 -10 16 -57 33 -93 33 l-29 0 0 135 0 135
45 0 c72 0 85 20 85 133 0 135 18 127 -287 127 -229 0 -251 -1 -266 -18z m498
-107 l0 -70 -67 -3 -68 -3 0 -194 0 -194 68 -3 67 -3 0 -70 0 -70 -230 0 -230
0 0 70 0 70 68 3 67 3 0 194 0 195 -70 0 -70 0 0 68 c0 38 3 72 7 76 4 3 108
5 232 4 l226 -3 0 -70z"/>
<path d="M4420 2515 c0 -25 1 -25 80 -25 l80 0 0 -245 0 -245 -80 0 c-79 0
-80 0 -80 -25 l0 -25 185 0 185 0 0 25 c0 25 -1 25 -80 25 l-80 0 0 245 0 245
80 0 c79 0 80 0 80 25 l0 25 -185 0 -185 0 0 -25z"/>
<path d="M5174 2626 c-18 -14 -19 -30 -19 -381 0 -351 1 -367 19 -381 16 -11
72 -14 287 -14 230 0 270 2 283 16 12 12 16 37 16 105 0 134 7 129 -165 129
-122 0 -145 2 -145 15 0 12 18 15 99 15 129 0 131 2 131 120 0 118 -2 120
-131 120 -59 0 -99 4 -99 10 0 6 53 10 139 10 175 0 171 -3 171 125 0 72 -4
97 -16 109 -13 14 -53 16 -283 16 -215 0 -271 -3 -287 -14z m534 -113 l3 -73
-161 0 -160 0 0 -60 0 -59 118 -3 117 -3 0 -65 0 -65 -117 -3 -118 -3 0 -64 0
-65 160 0 160 0 0 -75 0 -75 -250 0 -250 0 0 345 0 345 248 -2 247 -3 3 -72z"/>
<path d="M5270 2245 l0 -295 195 0 195 0 0 25 0 25 -165 0 -165 0 0 110 0 110
125 0 125 0 0 30 0 30 -125 0 -125 0 0 105 0 105 165 0 165 0 0 25 0 25 -195
0 -195 0 0 -295z"/>
<path d="M6474 2626 c-18 -14 -19 -30 -19 -381 0 -351 1 -367 19 -381 16 -11
65 -14 240 -14 122 0 241 5 266 11 63 14 116 52 142 102 22 40 23 52 23 282 0
230 -1 242 -23 282 -26 50 -79 88 -142 102 -25 6 -144 11 -266 11 -175 0 -224
-3 -240 -14z m527 -64 c30 -14 53 -35 67 -61 21 -37 22 -51 22 -256 0 -205 -1
-219 -22 -256 -14 -26 -37 -47 -67 -61 -43 -21 -62 -23 -268 -26 l-223 -4 0
347 0 347 223 -4 c206 -3 225 -5 268 -26z"/>
<path d="M6580 2245 l0 -297 178 4 c151 3 181 6 208 22 56 34 59 44 62 256 3
215 -3 241 -61 284 -26 19 -45 21 -208 24 l-179 4 0 -297z m310 236 c76 -15
80 -26 80 -236 0 -161 -2 -185 -18 -205 -23 -28 -80 -39 -214 -40 l-108 0 0
245 0 245 108 0 c59 -1 127 -5 152 -9z"/>
<path d="M6700 2245 l0 -195 85 0 c125 0 125 0 125 195 0 195 0 195 -125 195
l-85 0 0 -195z m148 -2 l-3 -138 -47 -3 -48 -3 0 140 0 141 50 0 51 0 -3 -137z"/>
<path d="M7436 2624 c-14 -13 -16 -62 -16 -379 0 -317 2 -366 16 -379 13 -14
53 -16 283 -16 215 0 271 3 287 14 16 13 19 27 19 109 0 65 -4 99 -14 110 -11
14 -36 17 -157 17 -121 0 -144 2 -144 15 0 12 17 15 96 15 134 0 134 0 134
115 0 124 -2 125 -131 125 -59 0 -99 4 -99 10 0 6 55 10 144 10 121 0 146 3
157 17 10 11 14 45 14 110 0 82 -3 96 -19 109 -16 11 -72 14 -287 14 -230 0
-270 -2 -283 -16z m534 -109 l0 -75 -160 0 -160 0 0 -60 0 -60 120 0 120 0 0
-70 0 -70 -120 0 -120 0 0 -65 0 -65 160 0 160 0 0 -75 0 -75 -247 2 -248 3
-3 330 c-1 181 0 336 3 342 3 10 62 13 250 13 l245 0 0 -75z"/>
<path d="M7540 2245 l0 -295 195 0 195 0 0 25 0 25 -170 0 -170 0 0 110 0 110
125 0 125 0 0 30 0 30 -125 0 -125 0 0 105 0 105 170 0 170 0 0 25 0 25 -195
0 -195 0 0 -295z"/>
<path d="M8422 2622 c-9 -9 -46 -94 -82 -187 l-65 -170 -3 -188 c-5 -239 -12
-227 143 -227 136 0 138 2 143 106 l4 74 53 0 53 0 4 -76 c5 -103 9 -105 158
-102 145 4 140 -3 140 203 -1 178 -4 196 -77 388 -81 213 -58 197 -274 197
-158 0 -181 -2 -197 -18z m355 -44 c6 -7 36 -80 69 -163 l58 -150 4 -182 4
-183 -91 0 -91 0 0 90 0 90 -115 0 -115 0 0 -90 0 -90 -84 0 c-67 0 -85 3 -90
16 -9 24 -7 232 3 295 10 58 102 316 127 357 14 21 20 22 163 22 107 0 151 -3
158 -12z"/>
<path d="M8507 2517 c-13 -12 -43 -72 -67 -132 l-44 -110 -4 -162 -3 -163 25
0 c26 0 26 0 26 85 l0 85 175 0 175 0 0 -85 0 -85 31 0 31 0 -4 158 -3 157
-50 115 c-66 155 -72 160 -180 160 -76 0 -89 -3 -108 -23z m175 -39 c23 -18
100 -204 106 -255 l5 -43 -178 0 -177 0 7 36 c9 52 84 241 101 259 19 19 113
20 136 3z"/>
<path d="M8582 2431 c-13 -8 -72 -171 -72 -198 0 -10 27 -13 105 -13 78 0 105
3 105 13 0 27 -59 190 -72 198 -7 5 -22 9 -33 9 -11 0 -26 -4 -33 -9z m51
-103 l16 -48 -34 0 -33 0 16 50 c9 27 16 49 17 47 1 -1 9 -23 18 -49z"/>
<path d="M9246 2618 c-14 -19 -16 -72 -16 -373 0 -301 2 -354 16 -373 14 -21
23 -22 127 -22 62 0 119 5 127 10 12 7 16 40 20 152 l5 142 53 -63 52 -63 0
-72 c0 -102 6 -106 148 -106 87 0 114 3 126 16 14 13 16 62 16 379 0 317 -2
366 -16 379 -12 13 -39 16 -128 16 -142 0 -146 -3 -146 -114 l0 -77 -77 86
c-42 47 -84 90 -94 95 -10 6 -58 10 -108 10 -82 0 -91 -2 -105 -22z m203 -55
c15 -16 75 -82 132 -147 l104 -119 3 147 3 147 87 -3 87 -3 0 -340 0 -340 -87
-3 -88 -3 0 73 0 74 -110 133 -110 133 -2 -203 -3 -204 -87 -3 -88 -3 0 346 0
345 65 0 c57 0 68 -3 94 -27z"/>
<path d="M9357 2533 c-4 -3 -7 -136 -7 -295 l0 -288 25 0 25 0 2 250 3 251
172 -193 173 -193 0 -57 c0 -55 1 -58 25 -58 l25 0 0 295 0 295 -25 0 -25 0
-2 -192 -3 -191 -170 191 c-162 183 -194 210 -218 185z"/>
<path d="M4437 1534 c-46 -36 -47 -38 -47 -94 0 -64 6 -70 66 -70 l34 0 0
-140 c0 -158 1 -160 82 -160 44 0 71 13 121 58 26 25 27 29 27 131 l0 106 50
40 c48 39 49 41 50 96 0 43 -4 58 -16 63 -9 3 -84 6 -168 6 l-153 0 -46 -36z
m373 -34 l0 -50 -50 0 -50 0 0 -134 c0 -74 -3 -141 -6 -150 -5 -12 -21 -16
-65 -16 l-59 0 0 149 0 150 -52 3 c-52 3 -53 4 -56 36 -6 63 -9 62 173 62
l165 0 0 -50z"/>
<path d="M4577 1503 l62 -4 4 -157 3 -157 2 157 2 157 63 4 c34 2 4 3 -68 3
-71 0 -102 -1 -68 -3z"/>
<path d="M4893 1530 l-53 -42 0 -198 c0 -226 -2 -220 83 -220 38 0 54 7 96 40
50 40 51 40 51 16 0 -38 25 -56 78 -56 49 0 74 12 125 58 25 24 27 31 27 110
0 79 -2 85 -29 113 -16 16 -25 31 -20 35 14 8 10 102 -6 133 -8 16 -22 32 -32
36 -10 4 -74 10 -143 12 l-125 5 -52 -42z m322 -3 c34 -29 45 -96 21 -131 -19
-30 -20 -36 -4 -36 6 0 20 -7 30 -17 15 -13 18 -32 18 -105 l0 -89 -57 3 -58
3 -3 63 -3 62 -54 0 -55 0 0 -65 0 -66 -57 3 -58 3 -3 198 -2 197 129 0 c120
0 132 -2 156 -23z"/>
<path d="M4980 1350 c0 -100 4 -160 10 -160 6 0 10 30 10 71 l0 71 95 -4 c57
-2 100 -9 107 -16 7 -7 16 -39 19 -70 l6 -57 2 58 c1 49 -3 61 -22 80 -21 20
-23 29 -19 83 4 53 1 65 -17 83 -18 18 -33 21 -106 21 l-85 0 0 -160z m177
127 c12 -12 18 -32 17 -62 -1 -66 -14 -75 -100 -75 l-74 0 0 81 0 81 70 -4
c49 -2 75 -9 87 -21z"/>
<path d="M5050 1420 l0 -41 38 3 c35 3 37 5 37 38 0 33 -2 35 -37 38 l-38 3 0
-41z"/>
<path d="M5366 1533 c-45 -37 -46 -39 -46 -94 0 -60 7 -69 56 -69 22 0 24 -4
24 -54 0 -51 -2 -57 -40 -89 -38 -32 -40 -37 -40 -89 0 -42 4 -57 16 -62 9 -3
71 -6 139 -6 l123 0 52 41 c51 40 51 40 48 92 l-3 52 -37 3 -38 3 0 63 c0 61
1 63 40 95 37 29 40 36 40 81 0 39 -4 52 -19 60 -11 5 -76 10 -144 10 l-124 0
-47 -37z m314 -33 l0 -50 -35 0 -35 0 0 -100 0 -100 35 0 35 0 0 -50 0 -50
-135 0 -135 0 -6 25 c-3 14 -3 36 0 50 5 21 12 25 41 25 l35 0 0 100 0 100
-35 0 c-29 0 -36 4 -41 25 -3 14 -3 36 0 50 l6 25 135 0 135 0 0 -50z"/>
<path d="M5493 1503 l47 -4 0 -145 0 -144 -45 0 c-25 0 -45 -4 -45 -10 0 -6
38 -10 95 -10 57 0 95 4 95 10 0 6 -20 10 -45 10 l-45 0 0 144 0 145 48 4 c26
2 2 3 -53 3 -55 0 -79 -1 -52 -3z"/>
<path d="M5865 1556 c-16 -7 -53 -35 -82 -62 -47 -45 -52 -54 -58 -108 -12
-94 0 -224 22 -255 33 -45 79 -61 171 -61 100 0 131 12 200 77 l52 49 0 150
c0 167 -6 185 -66 210 -43 18 -198 18 -239 0z m240 -16 c46 -23 55 -52 55
-188 0 -184 -20 -207 -182 -207 -94 0 -129 15 -155 66 -18 35 -17 240 1 284 8
19 16 35 18 35 2 0 21 7 43 15 50 19 178 15 220 -5z"/>
<path d="M5941 1510 c-64 -10 -71 -24 -71 -160 0 -150 2 -154 107 -158 111 -5
125 7 131 116 6 110 -4 169 -31 186 -29 18 -81 24 -136 16z m112 -21 c34 -19
37 -27 37 -141 0 -103 -1 -107 -26 -127 -19 -15 -41 -21 -79 -21 -38 0 -60 6
-79 21 -25 20 -26 24 -26 129 0 105 1 109 26 129 30 24 110 29 147 10z"/>
<path d="M5946 1444 c-12 -11 -16 -36 -16 -94 0 -58 4 -83 16 -94 18 -18 47
-20 75 -6 17 9 19 22 19 98 0 55 -4 92 -12 100 -17 17 -64 15 -82 -4z"/>
</g>
</svg>
