<?xml version="1.0" standalone="no"?>
<!DOCTYPE svg PUBLIC "-//W3C//DTD SVG 20010904//EN"
 "http://www.w3.org/TR/2001/REC-SVG-20010904/DTD/svg10.dtd">
<svg version="1.0" xmlns="http://www.w3.org/2000/svg"
 width="1032.000000pt" height="714.000000pt" viewBox="0 0 1032.000000 714.000000"
 preserveAspectRatio="xMidYMid meet">

<g transform="translate(0.000000,714.000000) scale(0.100000,-0.100000)"
fill="#000000" stroke="none">
<path d="M5272 5679 c-67 -33 -114 -83 -155 -164 -24 -48 -466 -1479 -503
-1627 -22 -90 -14 -134 29 -156 18 -9 54 -38 81 -64 l48 -48 -6 -282 c-3 -156
-9 -448 -12 -650 l-6 -368 276 0 276 0 -6 658 c-6 581 -4 666 10 732 32 150
114 270 227 330 l62 33 -6 96 c-8 118 -42 312 -102 576 -57 254 -58 266 -2
319 23 22 65 57 92 76 90 64 120 134 113 262 -14 237 -221 375 -416 277z m242
-76 c26 -19 51 -50 71 -88 26 -51 30 -69 30 -139 0 -105 -16 -133 -122 -208
-145 -103 -150 -125 -89 -393 53 -239 92 -438 101 -520 3 -33 8 -76 11 -96 5
-34 3 -38 -44 -68 -112 -72 -192 -187 -235 -340 -21 -74 -22 -89 -19 -606 1
-291 5 -581 8 -642 6 -110 5 -113 -15 -113 l-21 0 -2 1427 c-2 1130 -6 1427
-15 1431 -10 3 -13 -287 -13 -1427 0 -1264 -2 -1431 -15 -1431 -13 0 -15 156
-17 1323 -2 873 -6 1322 -13 1322 -7 0 -11 -449 -13 -1322 -2 -1167 -4 -1323
-17 -1323 -13 0 -15 143 -15 1216 0 968 -3 1215 -12 1212 -10 -4 -14 -258 -16
-1216 -2 -1068 -4 -1212 -17 -1212 -13 0 -15 131 -15 1106 0 880 -3 1105 -12
1102 -10 -4 -14 -236 -16 -1106 -1 -720 -6 -1102 -12 -1102 -6 0 -11 347 -12
997 -2 786 -6 997 -15 1001 -10 3 -13 -201 -13 -997 0 -883 -2 -1001 -15
-1001 -13 0 -15 106 -15 890 0 784 -2 890 -15 890 -13 0 -15 -106 -15 -890 l0
-890 -26 0 c-25 0 -25 1 -20 52 3 29 8 308 12 619 5 504 4 569 -10 596 -20 39
-68 88 -118 119 -34 22 -37 27 -31 56 19 102 478 1599 508 1657 28 55 87 114
135 136 54 24 143 14 194 -22z"/>
<path d="M4891 5661 c-26 -24 -31 -36 -31 -76 0 -38 5 -52 29 -75 16 -16 41
-32 57 -36 40 -10 94 22 117 68 52 106 -85 200 -172 119z"/>
<path d="M4815 5376 c-33 -33 -39 -66 -21 -110 39 -93 186 -63 186 39 0 82
-108 128 -165 71z"/>
<path d="M4739 5091 c-49 -49 -37 -121 26 -147 96 -40 170 91 88 156 -37 29
-79 26 -114 -9z"/>
<path d="M4655 4828 c-68 -24 -99 -82 -71 -136 24 -46 65 -58 130 -38 84 27
113 75 81 135 -24 48 -75 62 -140 39z"/>
<path d="M4568 4541 c-64 -57 -32 -153 55 -168 32 -5 41 -1 72 30 51 51 45
115 -15 150 -41 25 -75 21 -112 -12z"/>
<path d="M4488 4283 c-47 -30 -64 -106 -32 -151 17 -25 64 -52 89 -52 36 0 84
32 100 67 46 96 -65 192 -157 136z"/>
<path d="M460 2068 c-13 -7 -27 -24 -31 -38 -11 -40 -10 -442 1 -501 14 -75
69 -220 91 -244 16 -16 35 -21 108 -23 124 -5 144 6 172 101 l22 72 18 -65
c27 -93 42 -104 145 -109 137 -5 145 2 204 176 l30 91 0 254 c0 313 11 293
-152 293 -146 0 -148 -2 -148 -161 0 -110 -1 -114 -19 -104 -25 13 -126 13
-151 0 -17 -9 -19 -3 -22 110 -4 155 -3 154 -141 158 -69 2 -110 -2 -127 -10z
m200 -252 l0 -194 30 -7 c17 -4 30 -8 30 -10 0 -1 -18 -42 -39 -90 l-39 -88
-13 39 c-8 25 -14 124 -16 272 l-5 232 -34 0 -34 0 0 -192 c0 -196 21 -358 51
-394 6 -8 29 -14 51 -14 45 0 45 1 112 150 39 88 44 95 70 95 27 0 32 -7 75
-106 25 -58 52 -113 60 -123 17 -20 74 -21 94 -1 32 32 47 149 47 371 l0 214
-29 0 -29 0 -4 -227 c-3 -162 -9 -241 -19 -272 l-14 -44 -45 103 c-61 142 -69
150 -135 150 -48 0 -56 -3 -80 -32 l-26 -33 16 40 c34 85 48 100 91 100 38 0
40 -2 71 -62 17 -34 33 -67 35 -73 2 -7 14 -9 31 -5 l27 7 0 194 0 194 86 0
86 0 -4 -247 -4 -248 -35 -90 -35 -90 -81 -3 c-71 -2 -82 -1 -87 15 -56 196
-54 193 -97 193 -35 0 -36 -3 -69 -114 l-26 -91 -81 -3 -81 -3 -33 88 -34 88
-3 253 -3 252 86 0 85 0 0 -194z"/>
<path d="M1510 2073 c-33 -12 -40 -37 -40 -132 0 -53 4 -101 8 -108 10 -16 57
-33 93 -33 l29 0 0 -135 0 -135 -49 0 c-73 0 -81 -12 -81 -129 0 -146 -21
-136 284 -136 223 0 257 2 272 16 19 19 30 127 20 183 -10 51 -29 66 -87 66
l-49 0 0 135 0 135 29 0 c89 0 117 42 109 167 -8 113 5 108 -281 110 -133 1
-249 -1 -257 -4z m470 -133 l0 -70 -65 0 -65 0 0 -200 0 -200 65 0 65 0 0 -70
0 -70 -225 0 -225 0 0 70 0 70 70 0 70 0 0 200 0 200 -70 0 -70 0 0 70 0 70
225 0 225 0 0 -70z"/>
<path d="M1570 1940 l0 -30 75 0 75 0 0 -240 0 -240 -75 0 -75 0 0 -30 0 -30
185 0 185 0 0 30 0 30 -75 0 -75 0 0 240 0 240 75 0 75 0 0 30 0 30 -185 0
-185 0 0 -30z"/>
<path d="M2350 2073 c-8 -3 -23 -12 -32 -21 -17 -14 -18 -45 -18 -382 0 -360
0 -367 21 -386 19 -18 42 -19 288 -22 146 -2 281 0 299 3 52 10 62 46 62 227
0 84 -5 170 -10 190 -14 49 -53 62 -168 56 -111 -6 -122 -17 -122 -129 l0 -79
-30 0 -30 0 0 234 c0 251 -6 291 -47 307 -26 10 -188 11 -213 2z m190 -333 l0
-270 95 0 95 0 0 100 0 100 85 0 85 0 0 -170 0 -170 -270 0 -270 0 0 340 0
340 90 0 90 0 0 -270z"/>
<path d="M2420 1670 l0 -300 215 0 215 0 0 130 0 130 -30 0 -30 0 0 -100 0
-100 -150 0 -150 0 0 270 0 270 -35 0 -35 0 0 -300z"/>
<path d="M3253 2070 c-12 -5 -26 -18 -32 -29 -7 -13 -11 -142 -11 -374 0 -334
1 -356 19 -378 19 -24 19 -24 288 -27 147 -2 283 0 301 3 53 10 62 45 62 233
0 88 -5 173 -11 190 -15 42 -59 56 -167 50 -111 -6 -122 -17 -122 -129 l0 -79
-30 0 -30 0 0 234 c0 251 -6 291 -47 307 -30 11 -190 11 -220 -1z m197 -330
l0 -270 95 0 94 0 3 98 3 97 83 3 82 3 0 -171 0 -170 -270 0 -270 0 0 340 0
340 90 0 90 0 0 -270z"/>
<path d="M3330 1670 l0 -300 215 0 215 0 0 130 0 130 -30 0 -30 0 0 -100 0
-100 -150 0 -150 0 0 270 0 270 -35 0 -35 0 0 -300z"/>
<path d="M4144 2070 c-28 -11 -44 -59 -44 -130 0 -105 28 -140 111 -140 l29 0
0 -135 0 -135 -47 0 c-27 0 -53 -4 -60 -8 -20 -13 -33 -60 -33 -121 0 -75 16
-120 47 -132 32 -12 464 -12 496 0 35 13 51 68 45 153 -7 88 -23 108 -90 108
l-48 0 0 135 0 135 29 0 c57 0 90 19 101 58 24 89 6 196 -37 213 -30 11 -470
11 -499 -1z m476 -130 l0 -70 -65 0 -65 0 0 -200 0 -200 65 0 65 0 0 -70 0
-70 -225 0 -225 0 0 70 0 70 70 0 70 0 0 200 0 200 -70 0 -70 0 0 70 0 70 225
0 225 0 0 -70z"/>
<path d="M4210 1940 l0 -30 75 0 75 0 0 -240 0 -240 -75 0 -75 0 0 -30 0 -30
185 0 185 0 0 30 0 30 -75 0 -75 0 0 240 0 240 75 0 75 0 0 30 0 30 -185 0
-185 0 0 -30z"/>
<path d="M4990 2073 c-8 -3 -23 -12 -32 -21 -17 -14 -18 -45 -18 -382 0 -360
0 -367 21 -386 20 -18 40 -19 291 -19 l270 0 19 24 c35 42 24 207 -15 233 -6
4 -73 8 -148 8 -85 0 -138 4 -138 10 0 6 39 10 98 10 53 0 102 4 109 8 31 20
44 137 22 201 -13 37 -23 40 -144 44 -63 2 -48 3 52 5 140 2 142 2 162 28 30
38 31 180 2 215 l-19 24 -259 2 c-142 1 -265 -1 -273 -4z m500 -133 l0 -70
-155 0 -155 0 0 -65 0 -65 115 0 115 0 0 -65 0 -65 -115 0 -115 0 0 -70 0 -70
155 0 155 0 0 -70 0 -70 -245 0 -245 0 0 340 0 340 245 0 245 0 0 -70z"/>
<path d="M5060 1670 l0 -300 200 0 200 0 0 30 0 30 -170 0 -170 0 0 105 0 105
125 0 125 0 0 35 0 35 -125 0 -125 0 0 100 0 100 170 0 170 0 0 30 0 30 -200
0 -200 0 0 -300z"/>
<path d="M6283 2070 c-12 -5 -26 -18 -32 -29 -7 -13 -11 -144 -11 -379 0 -352
0 -359 21 -378 19 -18 39 -19 248 -19 166 0 239 4 275 14 63 19 130 81 145
136 6 23 11 130 11 255 0 125 -5 232 -11 255 -14 49 -79 115 -134 134 -48 16
-478 26 -512 11z m512 -85 c28 -14 47 -33 63 -65 21 -42 22 -57 22 -250 0
-193 -1 -208 -22 -250 -40 -78 -64 -84 -330 -88 l-228 -3 0 341 0 341 228 -3
c203 -3 231 -5 267 -23z"/>
<path d="M6360 1670 l0 -300 175 0 c156 0 180 2 215 20 65 33 70 52 70 275 0
229 -6 251 -74 285 -38 18 -62 20 -214 20 l-172 0 0 -300z m372 212 c22 -22
23 -30 26 -206 3 -183 3 -184 -22 -212 l-24 -29 -141 -3 -141 -4 0 242 0 242
140 -4 c129 -3 141 -5 162 -26z"/>
<path d="M6480 1670 l0 -200 93 0 c130 0 127 -5 127 198 0 204 1 202 -130 202
l-90 0 0 -200z m160 0 l0 -140 -45 0 -45 0 0 140 0 140 45 0 45 0 0 -140z"/>
<path d="M7243 2070 c-42 -17 -44 -33 -41 -410 3 -329 4 -361 21 -377 16 -16
42 -18 286 -18 329 0 311 -8 311 132 0 133 0 133 -180 133 -87 0 -140 4 -140
10 0 6 41 10 104 10 131 0 136 5 136 125 0 116 -3 119 -137 126 l-108 5 143 2
c182 3 182 2 182 136 0 90 -1 96 -26 115 -25 20 -38 21 -278 20 -138 0 -261
-4 -273 -9z m517 -130 l0 -70 -160 0 -160 0 0 -65 0 -65 115 0 115 0 0 -65 0
-65 -115 0 -115 0 0 -70 0 -70 160 0 160 0 0 -70 0 -70 -245 0 -245 0 0 340 0
340 245 0 245 0 0 -70z"/>
<path d="M7320 1670 l0 -300 200 0 200 0 0 30 0 30 -165 0 -165 0 0 105 0 105
125 0 125 0 0 35 0 35 -125 0 -125 0 0 100 0 100 165 0 165 0 0 30 0 30 -200
0 -200 0 0 -300z"/>
<path d="M8235 2070 c-33 -13 -41 -27 -107 -200 l-63 -165 -3 -189 c-2 -104
-1 -199 2 -211 8 -32 48 -45 142 -45 81 0 120 10 136 34 4 6 8 41 8 79 l0 67
55 0 55 0 0 -68 c0 -95 13 -106 131 -111 171 -6 169 -9 169 222 l0 181 -39
115 c-64 188 -103 274 -131 288 -29 14 -322 17 -355 3z m395 -227 l64 -168 4
-172 4 -173 -91 0 -91 0 0 90 0 90 -115 0 -115 0 0 -90 0 -90 -86 0 -86 0 4
178 4 177 56 145 c31 80 60 153 63 163 6 15 24 17 164 17 l158 0 63 -167z"/>
<path d="M8292 1947 c-11 -12 -42 -76 -68 -142 l-48 -120 -4 -157 -4 -158 36
0 36 0 0 85 0 85 170 0 170 0 0 -85 0 -85 31 0 30 0 -3 168 -3 167 -48 111
c-66 154 -67 154 -181 154 -83 0 -95 -2 -114 -23z m185 -49 c19 -26 93 -211
99 -249 l7 -39 -172 0 -171 0 0 25 c0 25 59 193 86 248 14 25 19 27 78 27 39
0 67 -5 73 -12z"/>
<path d="M8367 1858 c-12 -10 -77 -189 -77 -214 0 -2 52 -4 115 -4 63 0 115 2
115 4 0 15 -63 202 -71 213 -14 16 -60 17 -82 1z m57 -120 c6 -25 4 -28 -19
-28 -20 0 -25 4 -21 18 3 9 8 30 12 46 6 26 8 27 14 10 4 -10 10 -31 14 -46z"/>
<path d="M9055 2068 c-11 -6 -23 -16 -27 -22 -4 -6 -8 -176 -8 -378 0 -320 2
-369 16 -382 23 -24 54 -28 153 -25 125 5 125 5 131 170 l5 131 47 -58 c47
-58 48 -60 48 -131 0 -106 17 -117 169 -112 70 3 94 8 108 22 17 16 18 46 18
387 0 341 -1 371 -18 387 -23 23 -192 32 -238 13 -33 -14 -38 -28 -41 -119
l-3 -64 -69 79 c-37 43 -82 87 -99 97 -37 20 -160 23 -192 5z m295 -206 l125
-144 3 146 3 146 84 0 85 0 0 -340 0 -340 -85 0 -85 0 0 73 0 72 -108 132
c-59 73 -110 132 -114 133 -5 0 -8 -92 -8 -205 l0 -205 -85 0 -85 0 0 340 0
341 72 -3 73 -3 125 -143z"/>
<path d="M9151 1964 c-21 -15 -21 -21 -21 -305 l0 -289 35 0 35 0 2 246 3 247
162 -184 162 -184 1 -62 0 -63 35 0 35 0 0 300 0 300 -35 0 -35 0 -2 -186 -3
-187 -164 186 c-90 102 -169 188 -176 191 -7 2 -22 -2 -34 -10z"/>
<path d="M3700 924 l-40 -36 0 -83 c0 -116 11 -129 117 -133 74 -4 81 -2 112
23 30 26 32 30 29 89 -3 61 -3 61 -37 66 l-33 5 21 19 c13 12 21 31 21 53 l0
33 -75 0 c-72 0 -76 -1 -115 -36z m180 1 c0 -22 -4 -25 -34 -25 -59 0 -66 -7
-66 -65 0 -45 3 -55 20 -60 28 -9 40 2 40 36 0 27 3 29 35 29 l35 0 0 -60 0
-60 -80 0 c-108 0 -120 11 -120 117 0 102 10 113 102 113 66 0 68 -1 68 -25z
m-60 -90 c-7 -8 -16 -15 -21 -15 -5 0 -9 7 -9 15 0 9 9 15 21 15 18 0 19 -2 9
-15z"/>
<path d="M3752 918 c-7 -7 -12 -40 -12 -79 0 -86 13 -101 84 -97 49 3 51 4 52
33 1 28 1 28 -3 3 -4 -26 -8 -28 -52 -28 -26 0 -52 5 -59 12 -7 7 -12 40 -12
80 0 74 -2 73 80 81 26 3 23 4 -15 5 -29 1 -56 -3 -63 -10z"/>
<path d="M3956 939 c-25 -19 -26 -25 -26 -107 0 -48 3 -97 6 -110 15 -55 143
-72 205 -27 56 41 59 50 59 162 l0 103 -42 0 c-25 0 -49 -7 -61 -17 -18 -17
-19 -17 -28 0 -14 25 -79 23 -113 -4z m106 -76 c3 -86 3 -88 28 -88 25 0 25 2
28 88 l3 87 34 0 35 0 0 -98 c0 -88 -2 -101 -21 -118 -25 -22 -120 -26 -156
-6 -22 12 -23 19 -23 117 l0 105 35 0 34 0 3 -87z"/>
<path d="M4022 849 c-2 -99 4 -109 64 -109 64 0 74 16 72 113 l-2 82 -3 -80
c-2 -43 -9 -85 -15 -93 -7 -8 -28 -12 -57 -10 l-46 3 -6 90 -5 90 -2 -86z"/>
<path d="M4237 934 c-35 -32 -35 -77 1 -82 18 -3 22 -10 22 -43 0 -21 -4 -39
-10 -39 -19 0 -42 -49 -36 -75 6 -24 9 -25 87 -25 66 0 85 4 109 22 37 27 43
86 10 95 -27 7 -27 63 -1 87 18 17 20 16 26 -3 4 -15 15 -21 36 -21 l29 0 0
-90 0 -90 36 0 c20 0 49 9 65 21 27 19 29 25 29 85 0 62 2 66 36 96 26 23 34
38 32 57 -3 26 -3 26 -108 29 -101 2 -106 1 -132 -23 l-28 -26 0 26 c0 25 0
25 -88 25 -80 0 -89 -2 -115 -26z m193 -9 c0 -18 -5 -25 -20 -25 -18 0 -20 -7
-20 -60 0 -53 2 -60 20 -60 16 0 20 -7 20 -30 l0 -30 -80 0 -80 0 0 30 c0 23
4 30 20 30 18 0 20 7 20 60 0 53 -2 60 -20 60 -15 0 -20 7 -20 25 0 25 1 25
80 25 79 0 80 0 80 -25z m260 1 c0 -19 -6 -25 -27 -28 -28 -3 -28 -3 -31 -90
l-3 -88 -34 0 -35 0 0 90 0 90 -30 0 c-25 0 -30 4 -30 25 0 25 0 25 95 25 94
0 95 0 95 -24z"/>
<path d="M4313 923 c27 -4 27 -4 27 -88 0 -79 -1 -84 -22 -88 -13 -2 2 -4 32
-4 30 0 45 2 33 4 -22 4 -23 9 -23 88 0 79 1 84 23 88 12 2 -5 4 -38 4 -33 0
-48 -2 -32 -4z"/>
<path d="M4552 923 l37 -4 4 -92 3 -92 2 92 2 92 38 4 c20 2 1 4 -43 4 -44 0
-63 -2 -43 -4z"/>
<path d="M4766 938 c-39 -35 -66 -117 -66 -198 l0 -70 38 0 c28 0 45 7 62 25
l23 25 -36 0 -37 0 0 53 c0 29 9 81 21 116 l21 62 60 -3 60 -3 19 -50 c11 -30
19 -75 19 -112 l0 -63 -35 0 c-32 0 -35 2 -35 30 0 27 -3 30 -31 30 l-32 0 7
-46 c3 -25 8 -50 12 -55 10 -17 71 -9 98 12 23 18 26 27 26 86 0 42 -8 87 -21
124 l-22 59 -63 0 c-51 0 -68 -4 -88 -22z"/>
<path d="M5006 939 c-27 -21 -27 -21 -24 -142 l3 -122 36 -3 c28 -2 44 3 65
22 l29 25 -37 1 -38 0 0 115 0 115 79 0 c92 0 106 -10 98 -69 -3 -29 -1 -41 9
-45 10 -4 14 -23 14 -61 l0 -55 -34 0 c-33 0 -35 2 -38 38 -3 33 -6 37 -32 40
l-29 4 6 -56 c3 -30 8 -60 12 -66 11 -17 65 -11 96 11 26 18 29 26 29 78 0 31
-5 62 -12 69 -7 7 -11 30 -9 51 4 59 -15 71 -113 71 -69 0 -88 -4 -110 -21z"/>
<path d="M5401 937 c-20 -22 -21 -32 -19 -143 l3 -119 75 -3 c93 -4 107 0 148
38 27 26 32 38 32 75 0 25 -6 50 -14 57 -8 8 -12 26 -9 49 8 56 -12 69 -111
69 -74 0 -85 -3 -105 -23z m197 1 c15 -15 16 -64 1 -73 -6 -5 -3 -13 10 -22
16 -10 21 -25 21 -57 0 -23 -5 -47 -12 -54 -8 -8 -45 -12 -100 -12 l-88 0 0
115 0 115 78 0 c47 0 83 -5 90 -12z"/>
<path d="M5460 835 l0 -95 54 0 c77 0 86 5 86 51 0 23 -5 42 -13 45 -8 3 -11
17 -9 40 5 44 -7 54 -70 54 l-48 0 0 -95z m105 45 c0 -35 0 -35 -47 -38 l-48
-3 0 41 0 41 48 -3 c47 -3 47 -3 47 -38z m23 -87 l-3 -38 -57 -3 -58 -3 0 41
0 40 61 0 60 0 -3 -37z"/>
<path d="M5500 880 c0 -15 7 -20 25 -20 18 0 25 5 25 20 0 15 -7 20 -25 20
-18 0 -25 -5 -25 -20z"/>
<path d="M5507 814 c-4 -4 -7 -16 -7 -26 0 -13 8 -18 31 -18 26 0 30 3 27 23
-3 22 -36 36 -51 21z"/>
<path d="M5717 932 c-38 -39 -69 -137 -65 -203 l3 -54 36 -3 c28 -2 42 3 67
27 l32 29 0 -29 c0 -27 3 -29 35 -29 21 0 48 9 65 22 28 20 30 27 29 82 0 38
-9 83 -23 121 l-23 60 -64 3 c-60 3 -67 1 -92 -26z m171 -44 c12 -35 22 -87
22 -115 l0 -53 -35 0 c-32 0 -35 2 -35 31 0 28 -2 30 -32 27 -28 -2 -34 -8
-36 -30 -3 -24 -8 -28 -34 -28 l-30 0 4 78 c3 42 12 94 22 115 16 37 17 37 74
37 l58 0 22 -62z"/>
<path d="M5771 917 c-31 -38 -55 -167 -31 -167 6 0 10 11 10 25 0 24 3 25 59
25 l60 0 4 -32 c3 -23 4 -18 5 18 1 33 -5 68 -18 98 -18 39 -25 46 -49 46 -16
0 -34 -6 -40 -13z m79 -37 c32 -64 29 -70 -40 -70 -68 0 -73 9 -46 75 22 51
59 49 86 -5z"/>
<path d="M5791 877 c-16 -41 -14 -47 14 -47 29 0 34 24 11 56 -14 18 -15 18
-25 -9z"/>
<path d="M5961 937 c-20 -22 -21 -32 -19 -143 l3 -119 33 -3 c21 -2 41 4 59
18 l27 21 8 -20 c10 -28 60 -28 99 0 l29 20 0 125 0 124 -38 0 c-21 0 -47 -7
-59 -15 -18 -13 -22 -13 -33 0 -20 24 -83 19 -109 -8z m123 -27 l36 -40 0 40
c0 39 1 40 35 40 l35 0 0 -116 0 -115 -32 3 c-27 2 -34 8 -36 28 -2 14 -16 41
-32 60 l-29 35 -1 -62 0 -63 -35 0 -35 0 0 115 0 115 29 0 c21 0 39 -11 65
-40z"/>
<path d="M6022 838 l2 -93 5 84 6 84 56 -64 c31 -35 59 -73 62 -84 2 -11 4 23
4 75 -1 73 -2 80 -4 28 l-4 -67 -56 62 c-32 34 -61 64 -65 65 -4 2 -7 -38 -6
-90z"/>
<path d="M6253 941 c-22 -18 -23 -27 -23 -145 l0 -126 74 0 c87 0 110 7 154
48 31 29 32 32 32 116 0 117 -9 126 -127 126 -71 -1 -92 -4 -110 -19z m211 -7
c12 -11 16 -36 16 -96 0 -111 -7 -118 -117 -118 l-83 0 0 115 0 115 84 0 c64
0 88 -4 100 -16z"/>
<path d="M6310 835 l0 -95 51 0 c81 0 89 8 89 93 0 44 -5 78 -12 85 -7 7 -38
12 -70 12 l-58 0 0 -95z m114 79 c13 -5 16 -22 16 -79 0 -82 -3 -85 -76 -85
l-44 0 0 85 0 85 44 0 c24 0 51 -3 60 -6z"/>
<path d="M6354 887 c-3 -8 -4 -36 -2 -63 3 -45 5 -49 28 -49 24 0 25 3 25 60
0 55 -2 60 -23 63 -12 2 -24 -3 -28 -11z"/>
<path d="M4800 884 c-12 -27 -19 -65 -19 -92 1 -30 4 -37 6 -19 4 26 7 27 64
27 56 0 59 -1 59 -25 0 -14 5 -25 11 -25 18 0 4 91 -21 139 -17 34 -25 41 -51
41 -26 0 -32 -6 -49 -46z m93 1 c31 -65 25 -75 -43 -75 -67 0 -69 2 -44 67 14
36 21 43 44 43 20 0 30 -8 43 -35z"/>
<path d="M4843 888 c-6 -7 -14 -23 -17 -35 -7 -20 -4 -23 24 -23 28 0 30 2 24
28 -9 36 -19 46 -31 30z"/>
<path d="M5072 838 c1 -51 3 -76 5 -55 l4 38 57 -3 57 -3 6 -40 6 -40 2 36 c0
20 -5 42 -12 48 -8 6 -12 23 -9 40 7 51 -12 71 -68 71 l-50 0 2 -92z m97 68
c7 -8 11 -27 9 -43 -3 -26 -7 -28 -50 -31 l-48 -3 0 45 0 46 39 0 c21 0 44 -6
50 -14z"/>
<path d="M5110 875 c0 -18 5 -25 20 -25 15 0 20 7 20 25 0 18 -5 25 -20 25
-15 0 -20 -7 -20 -25z"/>
</g>
</svg>
